<?xml version="1.0" standalone="no"?>
<!DOCTYPE svg PUBLIC "-//W3C//DTD SVG 20010904//EN"
 "http://www.w3.org/TR/2001/REC-SVG-20010904/DTD/svg10.dtd">
<svg version="1.0" xmlns="http://www.w3.org/2000/svg"
 width="512.000000pt" height="512.000000pt" viewBox="0 0 512.000000 512.000000"
 preserveAspectRatio="xMidYMid meet">
<metadata>
Created by potrace 1.11, written by Peter Selinger 2001-2013
</metadata>
<g transform="translate(0.000000,512.000000) scale(0.100000,-0.100000)"
fill="#000000" stroke="none">
<path d="M2350 5093 c-471 -47 -915 -216 -1285 -487 -72 -52 -78 -57 -179
-145 -33 -28 -64 -52 -70 -52 -6 -1 -51 -2 -101 -3 l-89 -1 -1 -105 -1 -105
-52 -65 c-46 -56 -98 -132 -188 -270 -110 -171 -263 -556 -300 -760 -2 -14 -9
-49 -15 -79 -6 -30 -12 -64 -14 -75 -1 -12 -6 -50 -10 -86 -4 -36 -9 -74 -11
-85 -7 -34 -6 -367 1 -440 50 -494 212 -913 504 -1305 l86 -115 0 -100 0 -100
99 -3 99 -3 66 -58 c465 -408 1080 -640 1686 -635 122 1 277 10 321 18 10 2
39 7 64 10 309 42 708 191 974 363 90 58 244 168 256 182 3 3 33 30 67 59 l61
53 103 1 102 1 -53 50 -52 49 29 31 c71 76 89 98 167 202 263 349 413 714 491
1200 13 80 13 538 0 630 -21 152 -26 179 -35 210 -5 17 -11 44 -13 60 -8 49
-57 214 -94 310 -94 247 -204 445 -367 660 -63 84 -84 108 -181 213 -33 36
-59 71 -58 79 0 8 -5 12 -13 9 -7 -3 -34 14 -60 37 -26 23 -56 51 -68 61 -25
22 -232 175 -261 193 -340 206 -651 323 -990 374 -38 5 -83 12 -100 15 -35 7
-464 12 -515 7z"/>
</g>
</svg>
